<mxfile host="app.diagrams.net" modified="2022-12-05T11:03:58.829Z" agent="5.0 (X11; Linux x86_64) AppleWebKit/537.36 (KHTML, like Gecko) Chrome/107.0.0.0 Safari/537.36" version="20.6.0" etag="6GT6v9uauhEBlCLbOtTc" type="github">
  <diagram id="aKnFlVgRzAIMELNsuht5" name="Page-1">
    <mxGraphModel dx="528" dy="777" grid="1" gridSize="10" guides="1" tooltips="1" connect="1" arrows="1" fold="1" page="1" pageScale="1" pageWidth="827" pageHeight="1169" math="0" shadow="0">
      <root>
        <mxCell id="0" />
        <mxCell id="1" parent="0" />
        <mxCell id="XSFpYLJgll2N361f_ktR-1" value="Enjeu (entité)" style="swimlane;fontStyle=1;align=center;verticalAlign=top;childLayout=stackLayout;horizontal=1;startSize=26;horizontalStack=0;resizeParent=1;resizeParentMax=0;resizeLast=0;collapsible=1;marginBottom=0;" vertex="1" parent="1">
          <mxGeometry x="1280" y="430" width="120" height="34" as="geometry" />
        </mxCell>
        <mxCell id="XSFpYLJgll2N361f_ktR-2" value="" style="line;strokeWidth=1;fillColor=none;align=left;verticalAlign=middle;spacingTop=-1;spacingLeft=3;spacingRight=3;rotatable=0;labelPosition=right;points=[];portConstraint=eastwest;" vertex="1" parent="XSFpYLJgll2N361f_ktR-1">
          <mxGeometry y="26" width="120" height="8" as="geometry" />
        </mxCell>
        <mxCell id="XSFpYLJgll2N361f_ktR-3" value="&lt;span style=&quot;text-align: start; background-color: rgb(250, 250, 250);&quot;&gt;&lt;font face=&quot;Alegreya, Times New Roman, Times, Georgia, serif&quot; color=&quot;#323232&quot;&gt;&lt;span style=&quot;font-size: 20px;&quot;&gt;Si l&#39;exposition constitue une condition nécessaire pour que des impacts se produisent,&lt;/span&gt;&lt;/font&gt;&lt;br&gt;&lt;font face=&quot;Alegreya, Times New Roman, Times, Georgia, serif&quot; color=&quot;#323232&quot;&gt;&lt;span style=&quot;font-size: 20px;&quot;&gt;ce n&#39;est toutefois pas une condition suffisante.&lt;/span&gt;&lt;/font&gt;&lt;br&gt;&lt;font face=&quot;Alegreya, Times New Roman, Times, Georgia, serif&quot; color=&quot;#323232&quot;&gt;&lt;span style=&quot;font-size: 20px;&quot;&gt;Il faut en effet&amp;nbsp;que les sociétés ou populations exposées soient vulnérables.&lt;/span&gt;&lt;/font&gt;&lt;br&gt;&lt;font face=&quot;Alegreya, Times New Roman, Times, Georgia, serif&quot; color=&quot;#323232&quot;&gt;&lt;span style=&quot;font-size: 20px;&quot;&gt;La vulnérabilité peut être définie comme la «&amp;nbsp;propension ou prédisposition à subir des dommages&amp;nbsp;» [GIEC, 2012, p.&amp;nbsp;4]&lt;/span&gt;&lt;/font&gt;&lt;br&gt;&lt;font face=&quot;Alegreya, Times New Roman, Times, Georgia, serif&quot; color=&quot;#323232&quot;&gt;&lt;span style=&quot;font-size: 20px;&quot;&gt;https://www.cairn.info/l-adaptation-au-changement-climatique--9782707174697-page-23.htm&lt;br&gt;&lt;/span&gt;&lt;/font&gt;&lt;br&gt;vulnérabilité permet de répondre à la question: Si l&#39;individu ou la population (i.e. l&#39;enjeu) est exposé, quelle est le niveau/l&#39;importance des dommages que&#39;il est susceptible de subir ?&lt;br&gt;&lt;/span&gt;" style="text;html=1;align=center;verticalAlign=middle;resizable=0;points=[];autosize=1;strokeColor=none;fillColor=none;" vertex="1" parent="1">
          <mxGeometry x="1675" y="95" width="980" height="160" as="geometry" />
        </mxCell>
        <mxCell id="XSFpYLJgll2N361f_ktR-4" style="edgeStyle=orthogonalEdgeStyle;rounded=0;orthogonalLoop=1;jettySize=auto;html=1;exitX=0.5;exitY=1;exitDx=0;exitDy=0;endArrow=none;endFill=0;entryX=0.5;entryY=0;entryDx=0;entryDy=0;" edge="1" parent="1" source="XSFpYLJgll2N361f_ktR-5" target="XSFpYLJgll2N361f_ktR-1">
          <mxGeometry relative="1" as="geometry">
            <mxPoint x="1360.434782608696" y="250" as="targetPoint" />
          </mxGeometry>
        </mxCell>
        <mxCell id="XSFpYLJgll2N361f_ktR-5" value="vulnérabilité (attribut)" style="swimlane;fontStyle=1;align=center;verticalAlign=top;childLayout=stackLayout;horizontal=1;startSize=26;horizontalStack=0;resizeParent=1;resizeParentMax=0;resizeLast=0;collapsible=1;marginBottom=0;" vertex="1" parent="1">
          <mxGeometry x="1270" y="140" width="220" height="88" as="geometry" />
        </mxCell>
        <mxCell id="XSFpYLJgll2N361f_ktR-6" value="+ nom&#xa;+ type de données: {char, real, ...}" style="text;strokeColor=none;fillColor=none;align=left;verticalAlign=top;spacingLeft=4;spacingRight=4;overflow=hidden;rotatable=0;points=[[0,0.5],[1,0.5]];portConstraint=eastwest;" vertex="1" parent="XSFpYLJgll2N361f_ktR-5">
          <mxGeometry y="26" width="220" height="54" as="geometry" />
        </mxCell>
        <mxCell id="XSFpYLJgll2N361f_ktR-7" value="" style="line;strokeWidth=1;fillColor=none;align=left;verticalAlign=middle;spacingTop=-1;spacingLeft=3;spacingRight=3;rotatable=0;labelPosition=right;points=[];portConstraint=eastwest;" vertex="1" parent="XSFpYLJgll2N361f_ktR-5">
          <mxGeometry y="80" width="220" height="8" as="geometry" />
        </mxCell>
        <mxCell id="XSFpYLJgll2N361f_ktR-8" style="edgeStyle=orthogonalEdgeStyle;rounded=0;orthogonalLoop=1;jettySize=auto;html=1;exitX=0;exitY=0.25;exitDx=0;exitDy=0;endArrow=none;endFill=0;dashed=1;" edge="1" parent="1" source="XSFpYLJgll2N361f_ktR-9">
          <mxGeometry relative="1" as="geometry">
            <mxPoint x="1380" y="290" as="targetPoint" />
          </mxGeometry>
        </mxCell>
        <mxCell id="XSFpYLJgll2N361f_ktR-9" value="quantifie (valeur)" style="swimlane;fontStyle=1;align=center;verticalAlign=top;childLayout=stackLayout;horizontal=1;startSize=26;horizontalStack=0;resizeParent=1;resizeParentMax=0;resizeLast=0;collapsible=1;marginBottom=0;" vertex="1" parent="1">
          <mxGeometry x="1450" y="280" width="180" height="78" as="geometry" />
        </mxCell>
        <mxCell id="XSFpYLJgll2N361f_ktR-10" value="+ valeur&#xa;+ unité de mesure" style="text;strokeColor=none;fillColor=none;align=left;verticalAlign=top;spacingLeft=4;spacingRight=4;overflow=hidden;rotatable=0;points=[[0,0.5],[1,0.5]];portConstraint=eastwest;" vertex="1" parent="XSFpYLJgll2N361f_ktR-9">
          <mxGeometry y="26" width="180" height="44" as="geometry" />
        </mxCell>
        <mxCell id="XSFpYLJgll2N361f_ktR-11" value="" style="line;strokeWidth=1;fillColor=none;align=left;verticalAlign=middle;spacingTop=-1;spacingLeft=3;spacingRight=3;rotatable=0;labelPosition=right;points=[];portConstraint=eastwest;" vertex="1" parent="XSFpYLJgll2N361f_ktR-9">
          <mxGeometry y="70" width="180" height="8" as="geometry" />
        </mxCell>
        <mxCell id="XSFpYLJgll2N361f_ktR-12" value="anti-pattern Entité - attribut -valeur" style="text;html=1;align=center;verticalAlign=middle;resizable=0;points=[];autosize=1;strokeColor=none;fillColor=none;" vertex="1" parent="1">
          <mxGeometry x="1270" y="95" width="210" height="30" as="geometry" />
        </mxCell>
      </root>
    </mxGraphModel>
  </diagram>
</mxfile>
